<svg width="100" height="100" viewBox="0 0 100 100" fill="none" xmlns="http://www.w3.org/2000/svg">
  <defs>
    <linearGradient id="logoGradient" x1="0%" y1="0%" x2="100%" y2="100%">
      <stop offset="0%" style="stop-color:#005a9c"/>
      <stop offset="100%" style="stop-color:#b55a30"/>
    </linearGradient>
  </defs>
  
  <!-- Background circle -->
  <circle cx="50" cy="50" r="48" fill="url(#logoGradient)"/>
  
  <!-- Inner circle for depth -->
  <circle cx="50" cy="50" r="42" fill="none" stroke="white" stroke-width="2" opacity="0.3"/>
  
  <!-- Stylized S for Sports -->
  <path d="M35 30 C25 30, 25 42, 35 45 C45 48, 45 48, 55 45 C65 42, 65 55, 55 58 C45 61, 35 61, 35 70" 
        fill="none" stroke="white" stroke-width="6" stroke-linecap="round"/>
  
  <!-- Arena arc -->
  <path d="M30 72 Q50 85, 70 72" fill="none" stroke="white" stroke-width="4" stroke-linecap="round"/>
  
  <!-- Trophy/star accent -->
  <circle cx="65" cy="28" r="8" fill="#e5e337" opacity="0.9"/>
  <path d="M65 22 L66.5 26 L71 26 L67.5 29 L69 33 L65 30.5 L61 33 L62.5 29 L59 26 L63.5 26 Z" fill="white"/>
</svg>
